<?xml version="1.0" encoding="utf-8"?>
<!-- Generator: Adobe Illustrator 22.1.0, SVG Export Plug-In . SVG Version: 6.00 Build 0)  -->
<svg version="1.1" id="Layer_1" xmlns="http://www.w3.org/2000/svg" xmlns:xlink="http://www.w3.org/1999/xlink" x="0px" y="0px"
	 viewBox="0 0 512 512" style="enable-background:new 0 0 512 512;" xml:space="preserve">
<g>
	<path d="M414.6,96.4C372.5,54.2,316.5,31,256.9,31C134,31,34,131,34,254c0,39.3,10.3,77.7,29.8,111.5L32.1,481l118.2-31
		c32.6,17.7,69.3,27.2,106.5,27.2h0.1l0,0c122.9,0,223-100,223-223C479.9,194.6,456.7,138.6,414.6,96.4L414.6,96.4z M256.9,439.5
		L256.9,439.5c-33.3,0-65.9-9-94.4-25.8l-6.8-4.1L85.6,428l18.7-68.4l-4.4-7C81.3,323.1,71.6,289,71.6,254
		c0-102.2,83.1-185.4,185.5-185.4c49.5,0,96.1,19.3,131,54.3c35,35.1,54.2,81.6,54.2,131.1C442.2,356.3,359.1,439.5,256.9,439.5
		L256.9,439.5z M358.5,300.7c-5.5-2.8-33-16.3-38.1-18.1c-5.1-1.9-8.8-2.8-12.6,2.8c-3.7,5.5-14.4,18.1-17.7,21.9
		c-3.3,3.7-6.5,4.2-12,1.4c-5.5-2.8-23.6-8.7-44.8-27.7c-16.5-14.8-27.8-33-31-38.6c-3.3-5.5-0.4-8.6,2.5-11.3
		c2.6-2.5,5.5-6.5,8.4-9.8c2.8-3.3,3.7-5.5,5.5-9.3c1.9-3.7,1-6.9-0.4-9.8c-1.4-2.8-12.6-30.2-17.1-41.4c-4.5-10.9-9.1-9.4-12.6-9.6
		c-3.3-0.2-6.9-0.2-10.6-0.2c-3.7,0-9.8,1.4-14.9,6.9c-5.1,5.5-19.5,19.1-19.5,46.5s19.9,53.9,22.8,57.7c2.8,3.7,39.3,60,95.2,84.1
		c13.3,5.7,23.7,9.1,31.7,11.8c13.4,4.2,25.5,3.6,35.1,2.2c10.7-1.6,33-13.4,37.6-26.5s4.7-24.2,3.3-26.5
		C367.9,304.9,364.2,303.5,358.5,300.7L358.5,300.7z"/>
</g>
</svg>
